# xmcd
#
# Track frame offsets: 
#        150
#        15470
#        34927
#        55657
#        73395
#        94775
#        114002
#        138332
#        156530
#        177562
#        192585
#        213650
#        232717
#
# Disc length: 3314 seconds
#
# Revision: 12
# Processed by: cddbd v1.5.2PL0 Copyright (c) Steve Scherf et al.
# Submitted via: ExactAudioCopyFreeDBPlugin 1.0
#
DISCID=b60cf00d
DTITLE=Kenny Chesney - Be as You Are (Songs from an Old Blue Chair)
DYEAR=2004
DGENRE=Country
TTITLE0=Old Blue Chair
TTITLE1=Be as You Are
TTITLE2=Guitars and Tiki Bars
TTITLE3=Island Boy
TTITLE4=Somewhere in the Sun
TTITLE5=Boston
TTITLE6=Something Sexy About the Rain
TTITLE7=French Kissing Life
TTITLE8=Key Lime Pie
TTITLE9=Sherry's Living in Paradise
TTITLE10=Magic
TTITLE11=Soul of a Sailor
TTITLE12=Old Blue Chair (Ocean Mix)
EXTD=YEAR: 2005
EXTT0=
EXTT1=
EXTT2=
EXTT3=
EXTT4=
EXTT5=
EXTT6=
EXTT7=
EXTT8=
EXTT9=
EXTT10=
EXTT11=
EXTT12=
PLAYORDER=
